<?xml version="1.0" encoding="UTF-8"?>
<svg version="1.1" xmlns="http://www.w3.org/2000/svg" width="1200" height="420">
<path d="M0 0 C0.83173737 -0.00379669 1.66347473 -0.00759338 2.52041626 -0.01150513 C5.2688785 -0.01890869 8.01628001 0.00249019 10.76464844 0.02490234 C12.68975704 0.02728971 14.61486801 0.02819147 16.53997803 0.02767944 C20.58181292 0.03080849 24.62329342 0.04736553 28.66503906 0.07421875 C33.7986332 0.10792468 38.93183326 0.11585484 44.06552505 0.11432838 C48.04831581 0.11487794 52.03102355 0.12594213 56.01378632 0.14033127 C57.90325036 0.14661954 59.79272366 0.15061908 61.68219757 0.15211868 C87.17669163 0.19445033 113.96866077 2.0292981 133.52246094 20.25537109 C144.24090259 31.37165883 147.05232222 45.8349811 146.98754883 60.67773438 C146.61211205 78.88224674 139.79416763 94.9444118 127.62402344 108.48583984 C127.11742187 109.08525391 126.61082031 109.68466797 126.08886719 110.30224609 C116.68293694 120.67041984 103.67373772 127.07094184 90.62402344 131.48583984 C89.52960938 131.86353516 88.43519531 132.24123047 87.30761719 132.63037109 C74.21906229 136.75627919 60.65050793 138.28549068 46.99511719 138.97412109 C46.24052216 139.01305481 45.48592712 139.05198853 44.70846558 139.09210205 C40.92332564 139.28282791 37.1393402 139.44812577 33.3515625 139.57617188 C22.86585446 139.97596142 22.86585446 139.97596142 13.62402344 144.48583984 C9.49878208 149.59135659 8.01091868 155.06384741 6.27636719 161.32568359 C5.97839737 162.36600235 5.68042755 163.40632111 5.37342834 164.47816467 C4.42619547 167.79049135 3.49303509 171.10656095 2.56152344 174.42333984 C1.62440248 177.73591424 0.68422776 181.04755946 -0.26109314 184.35780334 C-0.84735936 186.41314923 -1.42863953 188.46992596 -2.00416565 190.52830505 C-5.80394883 203.91381211 -5.80394883 203.91381211 -9.37597656 207.48583984 C-12.24844919 208.44777354 -14.89607692 208.61429128 -17.91113281 208.61865234 C-18.79422119 208.62082764 -19.67730957 208.62300293 -20.5871582 208.62524414 C-21.52809326 208.62049072 -22.46902832 208.6157373 -23.43847656 208.61083984 C-24.40841553 208.60673096 -25.37835449 208.60262207 -26.37768555 208.59838867 C-32.90088124 208.54899064 -39.42019283 208.43461176 -45.93847656 208.17333984 C-46.71650635 208.15094238 -47.49453613 208.12854492 -48.29614258 208.10546875 C-52.76598082 207.88709045 -55.81406225 207.25469838 -59.37597656 204.48583984 C-62.71253673 197.8127195 -58.38809618 186.40191589 -56.71484375 179.52758789 C-56.44297241 178.38377151 -56.17110107 177.23995514 -55.89099121 176.06147766 C-55.1478181 172.9415341 -54.39787663 169.82331515 -53.64482021 166.70574546 C-52.84190722 163.3744783 -52.0478635 160.04109684 -51.25274658 156.70796204 C-49.73387015 150.34670689 -48.20711735 143.9873695 -46.67752385 137.62868387 C-44.98863674 130.606132 -43.30856501 123.58148254 -41.62929821 116.55662513 C-38.67791065 104.21083013 -35.71574069 91.8676619 -32.74653149 79.52614188 C-30.65942665 70.84961993 -28.58462514 62.17028642 -26.52395248 53.48744869 C-25.32851524 48.45049192 -24.12757057 43.41484942 -22.92655182 38.37922096 C-22.36760351 36.03028018 -21.81082756 33.68082126 -21.25637054 31.33081627 C-20.4962417 28.11003459 -19.72848028 24.89116189 -18.95898438 21.67260742 C-18.74015846 20.73629549 -18.52133255 19.79998356 -18.29587555 18.83529854 C-15.37536819 6.70987049 -15.37536819 6.70987049 -11.2119751 2.07870483 C-7.46535778 -0.02561768 -4.18334675 -0.06041872 0 0 Z M33.62084961 43.13867188 C31.15302166 46.03947856 30.50047643 48.40609879 29.55371094 52.08740234 C29.38654572 52.72390717 29.21938049 53.36041199 29.04714966 54.01620483 C28.51815995 56.04465486 28.00869663 58.07746121 27.49902344 60.11083984 C27.149964 61.45360054 26.79971384 62.79605229 26.44824219 64.13818359 C21.55483232 79.65428781 21.55483232 79.65428781 22.68652344 95.29833984 C25.88142131 98.90548261 29.34449859 99.23081555 33.89355469 99.73974609 C49.9439279 100.50404958 69.29089927 94.82975043 81.62402344 84.48583984 C87.08500096 78.59557158 88.52012131 71.30812103 88.69042969 63.40380859 C88.22322527 56.43388141 86.74985588 51.30273093 81.62402344 46.36083984 C75.19310188 41.18075292 66.78897238 38.83083769 58.62402344 38.48583984 C57.62371094 38.43427734 56.62339844 38.38271484 55.59277344 38.32958984 C48.00942357 38.11697256 39.75013689 38.08135623 33.62084961 43.13867188 Z " fill="#1D6196" transform="translate(673.3759765625,70.51416015625)"/>
<path d="M0 0 C1.24716797 -0.00525696 1.24716797 -0.00525696 2.51953125 -0.01062012 C5.27856729 -0.01944517 8.03734787 -0.0135781 10.79638672 -0.00683594 C12.72435556 -0.00818415 14.65232407 -0.01012598 16.58029175 -0.01263428 C20.6339642 -0.01558805 24.6875487 -0.01128636 28.74121094 -0.00195312 C33.8905308 0.00933482 39.0396397 0.00295204 44.18895149 -0.00909805 C48.18030317 -0.0164017 52.17160675 -0.01398837 56.16296005 -0.00884247 C58.05801291 -0.00752373 59.95307037 -0.00909013 61.84811783 -0.01380157 C85.98910185 -0.06057241 114.3866173 1.01123342 132.97607422 18.63378906 C145.9791876 33.07617835 147.62585535 48.77047519 147.02148438 67.4375 C145.93937506 85.35276546 136.31546384 100.08985164 123.85107422 112.25878906 C123.21814453 112.91234375 122.58521484 113.56589844 121.93310547 114.23925781 C99.26563137 136.10611473 63.3295284 138.39746314 33.69873047 139.45800781 C22.99147644 139.47978029 22.99147644 139.47978029 13.85107422 144.25878906 C9.83641363 150.64648292 7.59444187 157.64219368 5.62451172 164.86816406 C5.35015289 165.83860657 5.07579407 166.80904907 4.79312134 167.80889893 C3.9279375 170.87295675 3.075946 173.94045219 2.22607422 177.00878906 C1.36763701 180.09096445 0.50620734 183.17219939 -0.36239624 186.25152588 C-0.89959027 188.15744971 -1.43085603 190.06505776 -1.95523071 191.97454834 C-5.17718175 203.44341158 -5.17718175 203.44341158 -9.16845703 207.11816406 C-13.70468948 208.85417963 -18.02425966 208.61397517 -22.83642578 208.50878906 C-23.85212646 208.49565674 -24.86782715 208.48252441 -25.91430664 208.46899414 C-28.99336461 208.41956138 -32.0706508 208.34337906 -35.14892578 208.25878906 C-36.5038916 208.22760986 -36.5038916 208.22760986 -37.88623047 208.19580078 C-40.3292288 208.1330764 -42.76969906 208.04636194 -45.21142578 207.94628906 C-45.92967529 207.92405273 -46.6479248 207.90181641 -47.38793945 207.87890625 C-51.95882325 207.63675467 -55.20301051 206.55493009 -59.14892578 204.25878906 C-59.51256318 195.68552133 -58.56802041 188.12883391 -56.50952148 179.81982422 C-56.2280426 178.63684753 -55.94656372 177.45387085 -55.65655518 176.23504639 C-54.88654679 173.01069906 -54.10465863 169.78969172 -53.31723428 166.56958437 C-52.47927839 163.12993117 -51.65710636 159.68650488 -50.83305359 156.24349976 C-49.25863615 149.67570098 -47.67041602 143.11132254 -46.07710952 136.54808366 C-44.31625628 129.29197934 -42.57021062 122.03234387 -40.8258059 114.77227068 C-38.60706439 105.53824772 -36.38542861 96.3049592 -34.14675903 87.07574463 C-33.46853131 84.27903053 -32.79036301 81.48230205 -32.11230469 78.68554688 C-31.94611515 78.00013337 -31.77992562 77.31471986 -31.60870004 76.60853624 C-29.31230404 67.13190925 -27.05421609 57.64695521 -24.82803929 48.15359712 C-23.79581689 43.75752173 -22.75556462 39.36333487 -21.71697044 34.96876144 C-21.16442393 32.61922672 -20.61617273 30.26867716 -20.07250404 27.9170723 C-19.32903401 24.70200532 -18.57101992 21.49069137 -17.80981445 18.27978516 C-17.59793928 17.34447842 -17.38606411 16.40917168 -17.16776848 15.44552231 C-14.69408177 5.15548689 -11.23477516 -0.05791344 0 0 Z M33.84790039 43.42260742 C31.64577634 46.55038283 30.7601744 49.09437925 29.78076172 52.78222656 C29.44173828 54.05195312 29.10271484 55.32167969 28.75341797 56.62988281 C28.49987549 57.61964111 28.49987549 57.61964111 28.24121094 58.62939453 C27.73533366 60.59776061 27.20709883 62.55900993 26.67529297 64.52050781 C21.68321361 80.60785217 21.68321361 80.60785217 23.85107422 96.25878906 C32.65734107 101.81964291 44.37150184 99.34206226 53.83544922 97.30175781 C64.64424332 94.63144364 78.99284848 90.81035032 85.28857422 80.94628906 C89.21546891 72.76974121 90.53645082 62.6302115 87.66357422 53.94628906 C85.44490813 48.75544764 81.42880063 45.39708413 76.85107422 42.25878906 C65.58260809 37.77439948 43.14631007 33.37851175 33.84790039 43.42260742 Z " fill="#152D52" transform="translate(135.14892578125,70.7412109375)"/>
<path d="M0 0 C1.27219139 -0.00218285 1.27219139 -0.00218285 2.57008362 -0.00440979 C4.3612919 -0.00275209 6.15251461 0.00879481 7.94360352 0.02954102 C10.67851621 0.05845746 13.41148502 0.05015545 16.14648438 0.03710938 C17.8893323 0.04334839 19.63217412 0.0517406 21.375 0.0625 C22.59708412 0.05809654 22.59708412 0.05809654 23.84385681 0.05360413 C28.43705688 0.12951209 31.59296925 0.43113299 35.25390625 3.49609375 C38.31494058 7.66285859 39.09570059 11.87421325 39.84790039 16.87890625 C39.98167587 17.71041199 40.11545135 18.54191772 40.25328064 19.39862061 C40.69167648 22.13798684 41.11518262 24.8794474 41.5390625 27.62109375 C41.84276745 29.53028591 42.14758838 31.43930085 42.45347595 33.34814453 C43.25574037 38.36880083 44.0462032 43.39123557 44.83319092 48.41430664 C46.09384271 56.45432565 47.36786317 64.49219608 48.65041924 72.52874756 C49.09561293 75.33360955 49.53302442 78.13960827 49.96974182 80.94580078 C50.2426494 82.66833877 50.51582343 84.39083456 50.78930664 86.11328125 C50.90831329 86.89161316 51.02731995 87.66994507 51.14993286 88.47186279 C51.77839798 92.38322014 52.59601671 95.889877 54.25390625 99.49609375 C58.96095133 92.67799068 63.15232623 85.62866502 67.25390625 78.43359375 C68.58671874 76.10907395 69.92005868 73.78486286 71.25390625 71.4609375 C71.75724487 70.58288956 71.75724487 70.58288956 72.27075195 69.68710327 C76.12981762 62.9587957 80.0463887 56.26432023 83.96704102 49.57177734 C87.08389711 44.24331394 90.17005895 38.89898899 93.21875 33.53125 C93.88851596 32.35603092 94.55843689 31.18090014 95.22851562 30.00585938 C96.49740154 27.77741794 97.76081086 25.54584523 99.01757812 23.31054688 C104.88865273 13.01828652 109.67773307 4.65410512 121.25390625 0.49609375 C125.03388774 -0.10653178 128.69184184 -0.09314187 132.51171875 0.0078125 C133.54078339 0.01488724 134.56984802 0.02196198 135.63009644 0.0292511 C138.880475 0.05698734 142.12905838 0.11968683 145.37890625 0.18359375 C147.59763117 0.20870344 149.8163834 0.2315119 152.03515625 0.25195312 C157.44200704 0.30674515 162.84782835 0.39015911 168.25390625 0.49609375 C166.32609156 5.52276917 163.80636661 10.02469039 161.12890625 14.68359375 C160.34580078 16.05052368 160.34580078 16.05052368 159.546875 17.44506836 C153.93475158 27.16571746 148.0249361 36.69954903 142.1171875 46.2421875 C136.73548177 54.93773204 131.48205354 63.70761172 126.25390625 72.49609375 C125.91788391 73.06092468 125.58186157 73.62575562 125.23565674 74.20770264 C120.01971244 82.97652379 114.81249282 91.75050947 109.60839844 100.52636719 C107.43172899 104.1967902 105.25310909 107.86605122 103.07421875 111.53515625 C90.16249536 133.28655381 77.3464674 155.09118814 64.72216797 177.01074219 C58.76369149 187.35489933 52.7813788 197.68448574 46.72998047 207.97460938 C45.43425213 210.18802027 44.1557008 212.41013738 42.8828125 214.63671875 C38.76037559 221.67620167 34.34485446 228.79911101 26.25390625 231.49609375 C24.77089962 231.5874033 23.28415405 231.62399146 21.79833984 231.62548828 C20.90086029 231.62864044 20.00338074 231.6317926 19.07870483 231.63504028 C18.11300568 231.63301605 17.14730652 231.63099182 16.15234375 231.62890625 C15.16013824 231.62986298 14.16793274 231.6308197 13.1456604 231.63180542 C11.04925473 231.63248588 8.95284694 231.63064094 6.85644531 231.62646484 C3.63471796 231.62110342 0.41312932 231.62642019 -2.80859375 231.6328125 C-4.84244823 231.63215192 -6.87630262 231.63087117 -8.91015625 231.62890625 C-10.36477768 231.6319426 -10.36477768 231.6319426 -11.8487854 231.63504028 C-12.73996063 231.63188812 -13.63113586 231.62873596 -14.54931641 231.62548828 C-15.33746735 231.62469269 -16.12561829 231.62389709 -16.93765259 231.62307739 C-18.74609375 231.49609375 -18.74609375 231.49609375 -19.74609375 230.49609375 C-19.43009781 224.21052233 -17.84008389 220.02532758 -14.62109375 214.68359375 C-14.21149414 213.98057129 -13.80189453 213.27754883 -13.37988281 212.55322266 C-11.1627613 208.77580837 -8.86498521 205.05537469 -6.49609375 201.37109375 C-5.9546875 200.5203125 -5.41328125 199.66953125 -4.85546875 198.79296875 C-3.63572465 196.8865539 -2.40864005 194.984712 -1.16210938 193.09570312 C0.67618049 190.29074379 2.46607312 187.4584317 4.25390625 184.62109375 C4.85493164 183.72374512 5.45595703 182.82639648 6.07519531 181.90185547 C14.09255958 168.957007 7.92799989 151.20856155 5.6484375 136.97265625 C5.28262293 134.66335415 4.91729171 132.35397544 4.55241394 130.04452515 C3.59089332 123.96630339 2.62338763 117.88904999 1.65441895 111.81201172 C0.69159115 105.76840339 -0.26648064 99.72404227 -1.22460938 93.6796875 C-1.41181108 92.49934811 -1.59901279 91.31900871 -1.79188728 90.10290146 C-2.72418305 84.2236596 -3.65518404 78.34421645 -4.58395386 72.4644165 C-4.94576935 70.1745181 -5.30759579 67.88462144 -5.66943359 65.59472656 C-5.84484617 64.48402927 -6.02025875 63.37333199 -6.20098686 62.2289772 C-7.18968521 55.97851283 -8.19178166 49.7304359 -9.20858669 43.48448372 C-9.79777067 39.85510694 -10.37795192 36.22432932 -10.95611 32.59318161 C-11.22049862 30.94682109 -11.48901929 29.30111764 -11.76210594 27.65617752 C-14.98387474 8.23317719 -14.98387474 8.23317719 -11.23022461 1.96459961 C-7.59063883 -0.18695896 -4.10699312 -0.0564898 0 0 Z " fill="#152D52" transform="translate(465.74609375,116.50390625)"/>
<path d="M0 0 C7.66045253 9.01229709 8.88642846 17.70997325 8.31176758 29.22009277 C7.70518623 36.62474628 5.95809544 43.88159392 4.375 51.125 C3.97529633 53.00613079 3.57664282 54.88748497 3.17895508 56.76904297 C2.08831261 61.90122428 0.97372284 67.0279428 -0.1461792 72.15380859 C-0.90812531 75.65208627 -1.66217849 79.15199512 -2.41455078 82.65234375 C-3.73232857 88.77900616 -5.06182579 94.90301157 -6.40075684 101.02508545 C-6.92169976 103.40877315 -7.44052846 105.79292397 -7.95715332 108.17755127 C-8.68775019 111.53967937 -9.43009664 114.89900264 -10.17578125 118.2578125 C-10.38908585 119.24777222 -10.60239044 120.23773193 -10.82215881 121.25769043 C-14.79164978 138.92359563 -14.79164978 138.92359563 -20.875 144.5 C-27.77676615 148.13911306 -34.24367259 147.81330963 -41.875 147.5 C-44.00780771 147.42174442 -46.14062069 147.34363223 -48.2734375 147.265625 C-54.4749418 147.03145648 -60.6749853 146.77061639 -66.875 146.5 C-66.545 141.88 -66.215 137.26 -65.875 132.5 C-67.01195312 133.15226563 -68.14890625 133.80453125 -69.3203125 134.4765625 C-89.85731676 146.14846384 -111.31661821 156.6415517 -135.51953125 150.5703125 C-147.36601538 146.79157367 -156.62860744 140.52933454 -162.84375 129.58984375 C-168.38229896 118.36589037 -168.93815523 103.9709134 -165.3125 92 C-158.72371601 75.53951874 -146.84863163 65.43826737 -130.875 58.5 C-127.90302891 57.30670858 -124.90640497 56.21989234 -121.875 55.1875 C-121.20082031 54.95716064 -120.52664063 54.72682129 -119.83203125 54.48950195 C-104.57613019 49.61469773 -88.51515524 48.2234684 -72.6875 46.375 C-69.33402965 45.97956745 -65.98078113 45.58241136 -62.62785339 45.18240356 C-60.55700289 44.9357188 -58.48581569 44.69183984 -56.41426086 44.45114136 C-55.01581184 44.2855925 -55.01581184 44.2855925 -53.58911133 44.11669922 C-52.36458 43.97371902 -52.36458 43.97371902 -51.11531067 43.82785034 C-48.98359981 43.51589266 -46.95323831 43.06235143 -44.875 42.5 C-44.52946622 36.74110366 -44.50797305 32.43830619 -47.875 27.5 C-53.5615421 21.23022282 -60.88121428 19.94187437 -69.09765625 19.21484375 C-85.68246741 18.76870263 -101.79085674 23.03645883 -117.70703125 27.1953125 C-121.41047474 28.14946035 -125.06471207 29.08433223 -128.875 29.5 C-129.875 28.5 -129.875 28.5 -129.9284668 26.25024414 C-129.81491557 23.0205495 -129.69589727 19.79144484 -129.5625 16.5625 C-129.52705078 15.45841797 -129.49160156 14.35433594 -129.45507812 13.21679688 C-128.89220718 -1.00619587 -128.89220718 -1.00619587 -126.875 -6.5 C-123.66477396 -8.64015069 -121.73585338 -9.0615989 -117.9765625 -9.71875 C-116.78587158 -9.92798096 -115.59518066 -10.13721191 -114.3684082 -10.3527832 C-112.45354614 -10.67315552 -112.45354614 -10.67315552 -110.5 -11 C-109.84607269 -11.11016449 -109.19214539 -11.22032898 -108.5184021 -11.33383179 C-75.55442577 -16.85828711 -27.6156791 -24.013634 0 0 Z M-105.80078125 85.1796875 C-110.41416354 89.93634254 -113.06587281 94.88359282 -113.875 101.5 C-113.68178397 106.36904406 -112.59212137 109.56375822 -109.625 113.4375 C-102.44285082 118.82411188 -93.44551003 118.28215925 -84.875 117.5 C-76.38570961 116.23360813 -66.1154327 113.7404327 -59.875 107.5 C-57.06933486 101.34674419 -55.65071349 94.89475039 -54.1875 88.3125 C-53.96255859 87.34119141 -53.73761719 86.36988281 -53.50585938 85.36914062 C-52.51479922 80.97413527 -51.74715762 77.02501397 -51.875 72.5 C-68.24796615 72.5 -92.86350675 73.89565498 -105.80078125 85.1796875 Z " fill="#152D52" transform="translate(427.875,132.5)"/>
<path d="M0 0 C5.63306748 5.23923013 9.23715511 11.60575887 9.84375 19.33984375 C10.06370741 26.26351528 9.71053491 32.75443589 8.375 39.546875 C8.20286987 40.45605179 8.03073975 41.36522858 7.85339355 42.30195618 C4.98156883 57.15693927 1.72128834 71.93856547 -1.50146484 86.72045898 C-2.47068773 91.16743943 -3.42929155 95.61663884 -4.38539886 100.06645489 C-5.13341082 103.53968257 -5.88844509 107.01135673 -6.645401 110.48264503 C-7.00186295 112.12254231 -7.35588733 113.76297167 -7.70726013 115.4039669 C-13.24570764 141.22802333 -13.24570764 141.22802333 -19.15625 146.33984375 C-26.14442279 150.06180535 -33.46822633 149.66431676 -41.15625 149.33984375 C-42.12369141 149.30310547 -43.09113281 149.26636719 -44.08789062 149.22851562 C-51.1121159 148.96177289 -58.13428298 148.66032472 -65.15625 148.33984375 C-64.82625 143.71984375 -64.49625 139.09984375 -64.15625 134.33984375 C-65.37957031 135.05269531 -66.60289062 135.76554688 -67.86328125 136.5 C-87.68527143 147.85037592 -107.7591805 157.12864365 -131.15625 153.33984375 C-143.9432396 149.83079062 -154.61896356 142.67787117 -161.4765625 131.11328125 C-167.59660745 118.28385368 -166.89460305 105.74948261 -163.15625 92.33984375 C-158.05248958 78.12937355 -146.27656736 68.49231121 -133.12304688 61.95336914 C-128.03897657 59.57202976 -122.82864006 57.74710917 -117.46875 56.08984375 C-116.72915039 55.85587891 -115.98955078 55.62191406 -115.22753906 55.38085938 C-99.58643842 50.81096057 -82.84575366 49.60580657 -66.71875 47.71484375 C-63.96283154 47.39041926 -61.20706271 47.06488736 -58.4516449 46.73623657 C-56.7591265 46.53444946 -55.06631804 46.33507554 -53.3731842 46.13851929 C-49.89659436 45.72481577 -46.5387175 45.24016097 -43.15625 44.33984375 C-42.70881743 38.07578783 -43.27544365 33.44501717 -47.15625 28.33984375 C-55.23951009 21.13242222 -65.73300276 20.67474922 -76.08105469 21.19189453 C-89.81973126 22.17138136 -103.0027006 25.3855343 -116.2421875 29.03515625 C-119.86094759 30.01936071 -123.41734547 30.93794196 -127.15625 31.33984375 C-128.15625 30.33984375 -128.15625 30.33984375 -128.2890625 27.9609375 C-128.2734502 21.5989271 -128.12309578 15.25460781 -127.78125 8.90234375 C-127.71164062 7.60425781 -127.64203125 6.30617187 -127.5703125 4.96875 C-127.16831528 1.44558565 -126.56388411 -1.40919176 -125.15625 -4.66015625 C-122.01685568 -6.7530858 -120.17309958 -7.20850849 -116.51171875 -7.87890625 C-115.37138184 -8.08813721 -114.23104492 -8.29736816 -113.05615234 -8.51293945 C-111.83105957 -8.726521 -110.6059668 -8.94010254 -109.34375 -9.16015625 C-108.07998535 -9.38082764 -106.8162207 -9.60149902 -105.51416016 -9.82885742 C-73.80788976 -15.19991963 -27.48908952 -21.16460697 0 0 Z M-105.09375 87.90234375 C-105.774375 88.70671875 -106.455 89.51109375 -107.15625 90.33984375 C-107.713125 90.95859375 -108.27 91.57734375 -108.84375 92.21484375 C-111.92554761 97.20442083 -112.68040251 102.57416609 -112.15625 108.33984375 C-110.33044996 113.51294386 -107.92624961 115.71147662 -103.15625 118.33984375 C-90.82226141 122.51613786 -75.82903654 118.59268915 -64.53125 113.33984375 C-60.20811653 110.77798688 -57.73705995 109.01361598 -56.05957031 104.17944336 C-55.78725586 102.96264893 -55.51494141 101.74585449 -55.234375 100.4921875 C-55.00980621 99.51252769 -55.00980621 99.51252769 -54.78070068 98.51307678 C-54.30881646 96.43731659 -53.85772098 94.35762759 -53.40625 92.27734375 C-53.08850868 90.87536281 -52.7695108 89.47366603 -52.44921875 88.07226562 C-50.78789773 81.27269491 -50.78789773 81.27269491 -50.15625 74.33984375 C-67.75020993 74.33984375 -91.25981398 75.83444212 -105.09375 87.90234375 Z " fill="#1D6196" transform="translate(964.15625,130.66015625)"/>
<path d="M0 0 C0.86066574 0.00007553 1.72133148 0.00015106 2.608078 0.00022888 C3.53316666 0.00539017 4.45825531 0.01055145 5.41137695 0.01586914 C6.36156204 0.01728409 7.31174713 0.01869904 8.29072571 0.02015686 C11.3270685 0.02575664 14.36333768 0.03830907 17.3996582 0.05102539 C19.45759985 0.05604042 21.51554265 0.06060332 23.57348633 0.06469727 C28.61973867 0.07572599 33.66593595 0.09299046 38.7121582 0.11352539 C37.43397598 8.28195559 35.86083371 16.33597827 34.02929688 24.3972168 C33.76703308 25.56401474 33.50476929 26.73081268 33.23455811 27.93296814 C32.51928017 31.11221736 31.80106656 34.29078561 31.08153701 37.46907473 C30.31240485 40.8699691 29.54721492 44.27175049 28.78157043 47.6734314 C27.31938469 54.16711363 25.85386508 60.66003852 24.38706905 67.15268075 C22.291775 76.42803901 20.20162143 85.70455572 18.11154366 94.98109055 C16.68565774 101.30918854 15.25912084 107.63713456 13.828426 113.96414733 C10.66189107 127.96775283 7.51292411 141.97463794 4.42838752 155.99656129 C3.53286979 160.0637327 2.63299486 164.1299431 1.73331457 168.19619548 C1.02540552 171.39841917 0.32213819 174.6015644 -0.37519264 177.80611038 C-1.13726668 181.30799403 -1.91003443 184.80736 -2.68505859 188.30639648 C-2.90567396 189.33517788 -3.12628933 190.36395927 -3.35359001 191.42391586 C-5.82492459 202.47158059 -5.82492459 202.47158059 -11.2878418 206.11352539 C-14.23950195 206.35644531 -14.23950195 206.35644531 -17.8269043 206.34399414 C-19.13014648 206.34206055 -20.43338867 206.34012695 -21.77612305 206.33813477 C-22.45626465 206.33193115 -23.13640625 206.32572754 -23.8371582 206.31933594 C-25.88465076 206.30127408 -27.93168472 206.29882515 -29.97924805 206.29907227 C-47.44794669 206.22177714 -47.44794669 206.22177714 -52.8503418 204.11352539 C-55.55952969 200.34422049 -54.58458084 195.16780897 -53.94448853 190.73653793 C-53.45616665 188.18562133 -52.90937112 185.65459607 -52.33862305 183.12084961 C-52.12993497 182.15936949 -51.92124689 181.19788937 -51.70623493 180.20727348 C-51.01323012 177.02555217 -50.30687909 173.84695415 -49.6003418 170.66821289 C-49.10470917 168.40644 -48.6098685 166.14449344 -48.11576843 163.88238525 C-46.79154129 157.83176612 -45.45546373 151.78382317 -44.11660385 145.73642731 C-43.01213993 140.74172176 -41.91408752 135.74561616 -40.81608486 130.74948692 C-37.57042573 115.98203714 -34.30389269 101.21925948 -31.02948761 86.4581604 C-30.3237182 83.27531888 -29.61877704 80.09229544 -28.91424561 76.90917969 C-26.44712895 65.76301829 -23.97030102 54.61910195 -21.47631836 43.47891998 C-20.97739024 41.24768612 -20.48020321 39.0160703 -19.98339844 36.78436279 C-19.07522395 32.7075298 -18.15697386 28.63303818 -17.23706055 24.55883789 C-16.84957893 22.81500824 -16.84957893 22.81500824 -16.45426941 21.03594971 C-12.97449303 5.74746878 -12.97449303 5.74746878 -9.2878418 2.17602539 C-6.09949606 0.48221672 -3.54991853 -0.01041032 0 0 Z " fill="#1D6196" transform="translate(1031.287841796875,70.886474609375)"/>
<path d="M0 0 C1.2065625 0.0309375 1.2065625 0.0309375 2.4375 0.0625 C3.27448386 2.51964547 4.10722424 4.97808857 4.9375 7.4375 C5.17597656 8.13617188 5.41445312 8.83484375 5.66015625 9.5546875 C7.4375 14.8359375 7.4375 14.8359375 7.4375 17.0625 C8.0975 17.0625 8.7575 17.0625 9.4375 17.0625 C9.61925781 16.42183594 9.80101562 15.78117187 9.98828125 15.12109375 C11.50020045 9.91854103 13.18750671 4.99105673 15.4375 0.0625 C16.7575 0.0625 18.0775 0.0625 19.4375 0.0625 C19.4375 7.9825 19.4375 15.9025 19.4375 24.0625 C18.1175 24.0625 16.7975 24.0625 15.4375 24.0625 C14.9425 19.1125 14.9425 19.1125 14.4375 14.0625 C13.1175 16.7025 11.7975 19.3425 10.4375 22.0625 C8.1875 22.125 8.1875 22.125 5.4375 21.0625 C3.71777685 18.15050873 2.6474577 15.24424061 1.4375 12.0625 C1.1075 16.0225 0.7775 19.9825 0.4375 24.0625 C-0.8825 24.0625 -2.2025 24.0625 -3.5625 24.0625 C-3.59137236 20.25001574 -3.60925492 16.4375593 -3.625 12.625 C-3.63337891 11.53638672 -3.64175781 10.44777344 -3.65039062 9.32617188 C-3.65361328 8.29169922 -3.65683594 7.25722656 -3.66015625 6.19140625 C-3.66539307 5.23306885 -3.67062988 4.27473145 -3.67602539 3.28735352 C-3.5119814 0.07244412 -3.23898215 0.07899956 0 0 Z " fill="#1D6196" transform="translate(1104.5625,70.9375)"/>
<path d="M0 0 C5.94 0 11.88 0 18 0 C18 0.99 18 1.98 18 3 C15.69 3.33 13.38 3.66 11 4 C11.01160156 4.68964844 11.02320313 5.37929687 11.03515625 6.08984375 C11.09342124 12.15772652 10.78903948 17.98357396 10 24 C8.68 24 7.36 24 6 24 C6 17.4 6 10.8 6 4 C4.02 4 2.04 4 0 4 C0 2.68 0 1.36 0 0 Z " fill="#1D6196" transform="translate(1080,71)"/>
</svg>
